<svg width="327" height="247" viewBox="0 0 327 247" fill="none" xmlns="http://www.w3.org/2000/svg">
<g filter="url(#filter0_f_3547_8967)">
<g filter="url(#filter1_bdf_3547_8967)">
<rect x="7.24219" y="77.7021" width="279.881" height="167.406" rx="25" transform="rotate(-14.5049 7.24219 77.7021)" fill="url(#paint0_linear_3547_8967)" fill-opacity="0.33" shape-rendering="crispEdges"/>
<rect x="7.24219" y="77.7021" width="279.881" height="167.406" rx="25" transform="rotate(-14.5049 7.24219 77.7021)" stroke="url(#paint1_linear_3547_8967)" shape-rendering="crispEdges"/>
</g>
<g filter="url(#filter2_i_3547_8967)">
<mask id="mask0_3547_8967" style="mask-type:luminance" maskUnits="userSpaceOnUse" x="108" y="60" width="116" height="113">
<path d="M156.853 82.0769C157.435 84.3262 158.48 86.3515 159.766 88.1056L141.059 112.353C136.318 109.719 130.663 108.782 125.005 110.246C113.395 113.249 106.387 125.184 109.397 136.822C112.408 148.459 124.325 155.498 135.935 152.494C147.544 149.491 154.553 137.556 151.542 125.918C150.555 122.104 148.669 118.836 146.128 116.259L164.424 92.4307C166.784 93.9071 169.407 94.7935 172.269 94.9923L184.767 143.304C181.429 144.481 178.759 146.632 176.905 149.929C174.835 153.595 174.232 157.299 175.244 161.21C176.256 165.122 178.58 168.069 182.168 170.271C185.756 172.473 189.525 172.959 193.525 171.924C197.427 170.914 200.364 168.589 202.46 165.021C204.53 161.355 205.133 157.652 204.121 153.74C203.488 151.295 202.321 149.197 200.594 147.348L213.311 125.694C214.387 125.833 215.634 125.823 216.805 125.52C221.39 124.334 224.233 119.634 223.019 114.939C221.829 110.343 217.136 107.488 212.453 108.699C207.868 109.886 205.024 114.586 206.239 119.28C206.543 120.454 207.016 121.479 207.782 122.429L195.282 143.714C193.884 143.137 192.536 142.755 191.141 142.594L178.642 94.2824C187.296 91.5219 192.448 82.4678 190.12 73.4704C187.742 64.2775 178.282 58.6906 169.111 61.063C160.039 63.4102 154.45 72.7862 156.853 82.0769Z" fill="white"/>
</mask>
<g mask="url(#mask0_3547_8967)">
<path d="M57.0222 112.601L173.578 12.7459L272.74 128.893L156.184 228.748L57.0222 112.601Z" fill="url(#paint2_linear_3547_8967)"/>
</g>
</g>
</g>
<defs>
<filter id="filter0_f_3547_8967" x="0.401172" y="0.760547" width="326.573" height="245.853" filterUnits="userSpaceOnUse" color-interpolation-filters="sRGB">
<feFlood flood-opacity="0" result="BackgroundImageFix"/>
<feBlend mode="normal" in="SourceGraphic" in2="BackgroundImageFix" result="shape"/>
<feGaussianBlur stdDeviation="5.9" result="effect1_foregroundBlur_3547_8967"/>
</filter>
<filter id="filter1_bdf_3547_8967" x="-22.7988" y="-22.4395" width="372.973" height="292.253" filterUnits="userSpaceOnUse" color-interpolation-filters="sRGB">
<feFlood flood-opacity="0" result="BackgroundImageFix"/>
<feGaussianBlur in="BackgroundImageFix" stdDeviation="17.5"/>
<feComposite in2="SourceAlpha" operator="in" result="effect1_backgroundBlur_3547_8967"/>
<feColorMatrix in="SourceAlpha" type="matrix" values="0 0 0 0 0 0 0 0 0 0 0 0 0 0 0 0 0 0 127 0" result="hardAlpha"/>
<feOffset dy="4"/>
<feGaussianBlur stdDeviation="2"/>
<feComposite in2="hardAlpha" operator="out"/>
<feColorMatrix type="matrix" values="0 0 0 0 0 0 0 0 0 0 0 0 0 0 0 0 0 0 0.25 0"/>
<feBlend mode="normal" in2="effect1_backgroundBlur_3547_8967" result="effect2_dropShadow_3547_8967"/>
<feBlend mode="normal" in="SourceGraphic" in2="effect2_dropShadow_3547_8967" result="shape"/>
<feGaussianBlur stdDeviation="0.5" result="effect3_foregroundBlur_3547_8967"/>
</filter>
<filter id="filter2_i_3547_8967" x="108.699" y="60.5176" width="114.6" height="115.927" filterUnits="userSpaceOnUse" color-interpolation-filters="sRGB">
<feFlood flood-opacity="0" result="BackgroundImageFix"/>
<feBlend mode="normal" in="SourceGraphic" in2="BackgroundImageFix" result="shape"/>
<feColorMatrix in="SourceAlpha" type="matrix" values="0 0 0 0 0 0 0 0 0 0 0 0 0 0 0 0 0 0 127 0" result="hardAlpha"/>
<feOffset dy="4"/>
<feGaussianBlur stdDeviation="5"/>
<feComposite in2="hardAlpha" operator="arithmetic" k2="-1" k3="1"/>
<feColorMatrix type="matrix" values="0 0 0 0 0.72549 0 0 0 0 0.305882 0 0 0 0 0.0823529 0 0 0 1 0"/>
<feBlend mode="normal" in2="shape" result="effect1_innerShadow_3547_8967"/>
</filter>
<linearGradient id="paint0_linear_3547_8967" x1="119.326" y1="148.122" x2="279.913" y2="239.492" gradientUnits="userSpaceOnUse">
<stop stop-color="white"/>
<stop offset="1" stop-color="#625C5C"/>
</linearGradient>
<linearGradient id="paint1_linear_3547_8967" x1="11.1904" y1="82.3406" x2="281.048" y2="254.624" gradientUnits="userSpaceOnUse">
<stop stop-color="#D23A0A" stop-opacity="0.47"/>
<stop offset="1" stop-color="#CE9911"/>
</linearGradient>
<linearGradient id="paint2_linear_3547_8967" x1="121.916" y1="157.662" x2="236.241" y2="60.0764" gradientUnits="userSpaceOnUse">
<stop stop-color="#EF9D52"/>
<stop offset="1" stop-color="#EF5959"/>
</linearGradient>
</defs>
</svg>
